<svg xmlns="http://www.w3.org/2000/svg" viewBox="120 145 680 390" role="img" aria-label="Hot dog do Vagner">
  <defs>
    <linearGradient id="bun" x1="0" x2="1"><stop offset="0" stop-color="#ef8e28"/><stop offset=".42" stop-color="#ffd47b"/><stop offset="1" stop-color="#c96118"/></linearGradient>
    <linearGradient id="meat" x1="0" x2="1"><stop offset="0" stop-color="#711d09"/><stop offset=".45" stop-color="#d94b13"/><stop offset="1" stop-color="#591707"/></linearGradient>
    <filter id="shadow" x="-25%" y="-35%" width="150%" height="175%"><feDropShadow dx="0" dy="26" stdDeviation="23" flood-color="#000" flood-opacity=".62"/><feDropShadow dx="0" dy="0" stdDeviation="11" flood-color="#ff8a00" flood-opacity=".24"/></filter>
    <linearGradient id="shine" x1="0" y1="0" x2="1" y2="1"><stop stop-color="#fff" stop-opacity=".5"/><stop offset=".5" stop-color="#fff" stop-opacity="0"/></linearGradient>
  </defs>
  <g filter="url(#shadow)" transform="rotate(5 460 350)">
    <ellipse cx="450" cy="500" rx="300" ry="38" fill="#000" opacity=".25"/>
    <path d="M154 375c16-104 122-184 276-205 150-20 290 24 333 102 26 48-7 91-88 120-86 30-216 42-342 30-118-12-188-18-179-47Z" fill="url(#bun)"/>
    <path d="M179 383c88 56 460 84 595-10-10 76-108 133-278 143-158 9-294-24-341-82-15-19-8-40 24-51Z" fill="#bf5d18"/>
    <path d="M190 350c68-72 483-94 568-18 18 16 9 36-18 48-106 46-421 50-540 12-28-9-36-24-10-42Z" fill="url(#meat)"/>
    <path d="M229 329c76-34 380-50 482-7" fill="none" stroke="#ffd51e" stroke-width="20" stroke-linecap="round" stroke-dasharray="42 30"/>
    <path d="M232 371c88 24 372 34 493-5" fill="none" stroke="#e31a12" stroke-width="16" stroke-linecap="round" stroke-dasharray="38 26"/>
    <path d="M190 302c95-100 431-111 553-28" fill="none" stroke="url(#shine)" stroke-width="13" stroke-linecap="round" opacity=".5"/>
    <g fill="#fff3bd" opacity=".78"><ellipse cx="302" cy="236" rx="8" ry="4" transform="rotate(-14 302 236)"/><ellipse cx="392" cy="219" rx="8" ry="4" transform="rotate(12 392 219)"/><ellipse cx="482" cy="215" rx="8" ry="4" transform="rotate(-10 482 215)"/><ellipse cx="592" cy="230" rx="8" ry="4" transform="rotate(15 592 230)"/></g>
  </g>
</svg>
