<svg xmlns="http://www.w3.org/2000/svg" viewBox="0 0 900 700" role="img" aria-label="Entrega rápida premium">
  <defs>
    <linearGradient id="g" x1="0" x2="1"><stop offset="0" stop-color="#ffb414"/><stop offset="1" stop-color="#ff6418"/></linearGradient>
    <filter id="sh" x="-20%" y="-20%" width="140%" height="140%"><feDropShadow dx="0" dy="28" stdDeviation="24" flood-color="#000" flood-opacity=".45"/></filter>
  </defs>
  <rect width="900" height="700" rx="60" fill="#090604"/>
  <path d="M92 510c170-80 332-86 486-20 74 32 152 38 230 16" fill="none" stroke="#ffb414" stroke-width="22" stroke-linecap="round" opacity=".16"/>
  <g filter="url(#sh)">
    <circle cx="292" cy="478" r="76" fill="#15100d" stroke="#ffb414" stroke-width="20"/>
    <circle cx="610" cy="478" r="76" fill="#15100d" stroke="#ffb414" stroke-width="20"/>
    <path d="M274 472h188l78-150h112l52 150H610l-48-92h-58l-50 92" fill="none" stroke="url(#g)" stroke-width="30" stroke-linecap="round" stroke-linejoin="round"/>
    <path d="M366 334h160l-62 138H318z" fill="#ff6418" opacity=".9"/>
    <rect x="390" y="218" width="190" height="126" rx="38" fill="#201006" stroke="#ffb414" stroke-width="10"/>
    <path d="M432 262h106" stroke="#ffd36e" stroke-width="14" stroke-linecap="round"/>
    <path d="M430 300h76" stroke="#fff" stroke-opacity=".55" stroke-width="10" stroke-linecap="round"/>
  </g>
  <g transform="translate(112 112)">
    <rect width="310" height="96" rx="36" fill="#120902" stroke="#ffb414" stroke-opacity=".26"/>
    <text x="30" y="40" fill="#ffd36e" font-family="Arial" font-weight="900" font-size="18">ENTREGA RÁPIDA</text>
    <text x="30" y="70" fill="#fff" font-family="Arial" font-weight="900" font-size="26">pedido em tempo real</text>
  </g>
  <g fill="#ffb414" opacity=".35">
    <circle cx="750" cy="180" r="8"/><circle cx="786" cy="226" r="5"/><circle cx="730" cy="260" r="6"/><circle cx="168" cy="322" r="7"/>
  </g>
</svg>
