<svg xmlns="http://www.w3.org/2000/svg" viewBox="0 0 240 240" role="img" aria-label="Bebida gelada">
  <defs>
    <linearGradient id="glass" x1="0" y1="0" x2="1" y2="1"><stop stop-color="#f9fbff" stop-opacity=".85"/><stop offset="1" stop-color="#9ca5ad" stop-opacity=".25"/></linearGradient>
    <linearGradient id="juice" x1="0" y1="0" x2="0" y2="1"><stop stop-color="#ffd22a"/><stop offset="1" stop-color="#ff7a00"/></linearGradient>
    <filter id="shadow"><feDropShadow dx="0" dy="12" stdDeviation="10" flood-opacity=".45"/></filter>
  </defs>
  <ellipse cx="120" cy="211" rx="62" ry="14" fill="#000" opacity=".35"/>
  <g filter="url(#shadow)">
    <path d="M64 38h112l-14 164c-1 12-11 21-23 21H101c-12 0-22-9-23-21z" fill="url(#glass)" stroke="#d7dce0" stroke-width="4"/>
    <path d="M76 83h88l-10 112c-1 8-7 14-15 14h-38c-8 0-14-6-15-14z" fill="url(#juice)"/>
    <ellipse cx="120" cy="83" rx="44" ry="9" fill="#ffe665"/>
    <path d="M145 26l-20 66" fill="none" stroke="#ff4f27" stroke-width="8" stroke-linecap="round"/>
    <path d="M155 26h-10" fill="none" stroke="#ff4f27" stroke-width="8" stroke-linecap="round"/>
    <path d="M92 55l14 20M131 51l13 23M103 105l13 18" stroke="#fff" stroke-opacity=".62" stroke-width="6" stroke-linecap="round"/>
  </g>
</svg>
