<svg xmlns="http://www.w3.org/2000/svg" viewBox="0 0 900 700" role="img" aria-label="Hot dog prensado premium">
  <defs>
    <radialGradient id="bg" cx="50%" cy="35%" r="65%">
      <stop offset="0" stop-color="#ffcf58" stop-opacity=".45"/>
      <stop offset=".45" stop-color="#ff7a18" stop-opacity=".18"/>
      <stop offset="1" stop-color="#0b0703" stop-opacity="0"/>
    </radialGradient>
    <linearGradient id="bun" x1="0" x2="1">
      <stop offset="0" stop-color="#f4a640"/>
      <stop offset=".42" stop-color="#ffd073"/>
      <stop offset="1" stop-color="#d57926"/>
    </linearGradient>
    <linearGradient id="meat" x1="0" x2="1">
      <stop offset="0" stop-color="#6c260e"/>
      <stop offset=".45" stop-color="#c14a18"/>
      <stop offset="1" stop-color="#5a1d0c"/>
    </linearGradient>
    <filter id="shadow" x="-20%" y="-20%" width="140%" height="140%">
      <feDropShadow dx="0" dy="32" stdDeviation="28" flood-color="#000" flood-opacity=".48"/>
    </filter>
  </defs>
  <rect width="900" height="700" rx="60" fill="#0b0703"/>
  <circle cx="450" cy="320" r="330" fill="url(#bg)"/>
  <g opacity=".22" fill="none" stroke="#ffd36e" stroke-width="2">
    <path d="M96 160c80-80 154-84 222-12M620 94c96 30 148 92 154 184M106 548c92 42 178 48 258 18"/>
  </g>
  <g filter="url(#shadow)">
    <ellipse cx="450" cy="515" rx="310" ry="50" fill="#000" opacity=".34"/>
    <path d="M154 375c16-104 122-184 276-205 150-20 290 24 333 102 26 48-7 91-88 120-86 30-216 42-342 30-118-12-188-18-179-47Z" fill="url(#bun)"/>
    <path d="M179 383c88 56 460 84 595-10-10 76-108 133-278 143-158 9-294-24-341-82-15-19-8-40 24-51Z" fill="#cc7627"/>
    <path d="M190 350c68-72 483-94 568-18 18 16 9 36-18 48-106 46-421 50-540 12-28-9-36-24-10-42Z" fill="url(#meat)"/>
    <path d="M229 329c76-34 380-50 482-7" fill="none" stroke="#f6d237" stroke-width="20" stroke-linecap="round" stroke-dasharray="42 30"/>
    <path d="M232 371c88 24 372 34 493-5" fill="none" stroke="#d41414" stroke-width="16" stroke-linecap="round" stroke-dasharray="38 26"/>
    <path d="M278 294c52-18 184-30 292-24" fill="none" stroke="#3fbf5c" stroke-width="14" stroke-linecap="round" opacity=".85"/>
    <g fill="#fff3bd" opacity=".82">
      <ellipse cx="302" cy="236" rx="8" ry="4" transform="rotate(-14 302 236)"/>
      <ellipse cx="392" cy="219" rx="8" ry="4" transform="rotate(12 392 219)"/>
      <ellipse cx="482" cy="215" rx="8" ry="4" transform="rotate(-10 482 215)"/>
      <ellipse cx="592" cy="230" rx="8" ry="4" transform="rotate(15 592 230)"/>
    </g>
  </g>
  <g transform="translate(92 82)">
    <rect width="246" height="72" rx="36" fill="#140b04" stroke="#ffb414" stroke-opacity=".28"/>
    <text x="28" y="31" fill="#ffd36e" font-family="Arial, sans-serif" font-weight="900" font-size="17">MAIS PEDIDO</text>
    <text x="28" y="55" fill="#fff" font-family="Arial, sans-serif" font-weight="800" font-size="20">Hot Dog Prensado</text>
  </g>
  <g transform="translate(640 510)">
    <rect width="170" height="76" rx="28" fill="#ffb414"/>
    <text x="24" y="32" fill="#180a00" font-family="Arial, sans-serif" font-weight="900" font-size="18">feito na hora</text>
    <text x="24" y="56" fill="#180a00" font-family="Arial, sans-serif" font-weight="900" font-size="24">🔥</text>
  </g>
</svg>
